<svg xmlns="http://www.w3.org/2000/svg" width="500" height="500" viewBox="0 0 500 500">
<g>
<path d="M 0.00 0.00 L 500.00 0.00 L 500.00 500.00 L 0.00 500.00 ZM 284.00 356.00 L 284.00 411.00 L 385.00 411.00 L 385.00 377.50 C385.00,355.83 384.65,344.00 384.00,344.00 C383.45,344.00 383.00,345.05 383.00,346.34 C383.00,351.47 378.77,365.01 374.38,373.93 C366.69,389.55 353.87,400.58 338.77,404.56 C335.96,405.30 333.29,405.68 332.83,405.40 C332.37,405.11 332.00,382.44 332.00,355.01 L 332.00 305.14 L 327.01 308.49 C324.27,310.34 319.43,312.89 316.26,314.16 C310.65,316.42 309.51,316.49 273.25,316.80 C236.23,317.11 236.00,317.10 236.00,315.06 C236.00,313.02 236.38,313.00 267.79,313.00 C302.88,313.00 306.28,312.57 317.42,306.77 C321.33,304.73 326.72,300.37 332.54,294.55 C339.96,287.12 342.31,283.98 345.66,277.00 C352.30,263.17 353.50,257.11 353.50,237.50 C353.49,222.84 353.18,219.43 351.24,212.70 C345.33,192.30 332.58,176.28 315.81,168.20 L 308.12 164.50 L 308.06 151.67 L 308.00 138.84 L 250.25 139.24 C194.60,139.62 192.21,139.71 184.58,141.82 C164.34,147.40 149.47,160.77 142.03,180.08 C136.15,195.33 136.00,197.81 136.00,280.63 L 136.00 356.00 L 210.84 356.00 L 212.17 352.25 C213.00,349.92 213.46,344.33 213.41,337.50 C213.33,328.39 212.84,325.04 210.56,318.00 C207.10,307.29 197.91,288.13 186.35,267.50 C181.42,258.70 177.09,250.71 176.72,249.75 C176.10,248.11 177.71,248.00 202.03,248.00 L 228.00 248.00 L 228.00 280.50 C228.00,301.50 228.35,313.00 229.00,313.00 C229.64,313.00 230.00,320.83 230.00,334.50 L 230.00 356.00 ZM 228.00 201.50 L 228.00 240.00 L 171.50 239.96 L 168.18 232.44 C155.06,202.65 156.08,175.80 170.97,159.65 C179.22,150.69 189.16,148.09 215.25,148.03 L 230.00 148.00 L 230.00 155.50 C230.00,159.83 229.58,163.00 229.00,163.00 C228.35,163.00 228.00,176.50 228.00,201.50 ZM 276.00 173.00 L 276.00 308.00 L 256.67 308.00 C246.03,308.00 237.03,307.70 236.67,307.33 C236.30,306.97 236.00,276.59 236.00,239.83 L 236.00 173.00 ZM 313.85 302.37 C309.81,304.33 305.19,306.24 303.59,306.62 C301.00,307.22 300.76,307.09 301.47,305.40 C306.83,292.70 308.34,275.78 307.72,235.78 C307.15,199.24 306.38,193.77 300.01,180.78 L 296.20 173.00 L 302.02 173.00 C305.76,173.00 307.99,172.55 308.29,171.75 C309.25,169.10 321.52,176.77 329.20,184.83 C341.90,198.15 347.67,212.44 348.67,233.00 C349.60,252.08 345.80,268.14 337.31,281.00 C331.49,289.82 322.13,298.34 313.85,302.37 ZM 285.00 240.00 C285.00,294.44 284.82,302.00 283.50,302.00 C282.18,302.00 282.00,294.15 282.00,237.37 L 282.00 172.74 L 285.69 173.34 C287.72,173.67 290.29,174.85 291.41,175.97 L 293.44 178.00 L 285.00 178.00 Z" fill="rgb(0,0,0)"/>
<path d="M 227.68 248.00 L 202.03 248.00 C177.71,248.00 176.10,248.11 176.72,249.75 C177.09,250.71 181.42,258.70 186.35,267.50 C197.91,288.13 207.10,307.29 210.56,318.00 C212.84,325.04 213.33,328.39 213.41,337.50 C213.46,344.33 213.00,349.92 212.17,352.25 L 210.84 356.00 L 136.00 356.00 L 136.00 280.63 C136.00,197.81 136.15,195.33 142.03,180.08 C149.47,160.77 164.34,147.40 184.58,141.82 C192.21,139.71 194.60,139.62 250.25,139.24 L 308.00 138.84 L 308.06 151.67 L 308.12 164.23 L 306.66 163.50 L 267.38 163.20 L 229.17 162.90 C229.66,162.34 230.00,159.39 230.00,155.50 L 230.00 148.00 L 215.25 148.03 C189.16,148.09 179.22,150.69 170.97,159.65 C156.08,175.80 155.06,202.65 168.18,232.44 L 171.50 239.96 L 227.68 240.00 C227.68,242.68 227.68,245.36 227.68,248.00 ZM 311.57 315.63 C310.69,315.87 309.97,316.00 309.46,316.00 C308.23,316.00 308.00,319.12 308.00,336.00 L 308.00 356.00 L 230.00 356.00 L 230.00 334.50 C230.00,320.83 229.64,313.00 229.00,313.00 L 263.85 313.00 C288.81,313.00 299.10,312.87 306.17,311.27 C299.36,312.83 289.83,313.00 267.79,313.00 C266.42,313.00 265.11,313.00 263.85,313.00 C236.35,313.01 236.00,313.11 236.00,315.06 C236.00,317.10 236.23,317.11 273.25,316.80 C299.05,316.58 307.07,316.48 311.57,315.63 ZM 285.00 240.00 L 285.00 178.00 L 292.69 178.00 C294.41,181.27 296.11,186.53 297.14,192.13 C299.02,202.32 299.04,272.82 297.17,281.50 C295.06,291.27 293.05,296.65 290.50,299.41 C288.93,301.10 287.04,302.00 285.05,302.00 L 282.00 302.00 L 282.00 237.37 C282.00,294.15 282.18,302.00 283.50,302.00 C284.82,302.00 285.00,294.44 285.00,240.00 ZM 276.00 173.00 L 236.00 173.00 L 236.00 239.83 C236.00,276.59 236.30,306.97 236.67,307.33 C236.70,307.37 236.83,307.41 237.04,307.44 C236.13,307.39 235.51,307.34 235.25,307.29 L 233.00 306.86 L 233.00 238.04 C233.00,176.20 233.16,169.15 234.58,168.61 C235.45,168.27 245.13,168.00 256.08,168.00 L 276.00 168.00 ZM 301.14 306.66 C300.38,306.74 299.58,306.80 298.72,306.85 C291.26,307.27 291.05,307.01 295.10,302.49 C300.89,296.03 303.56,281.70 304.44,252.50 C304.94,235.65 303.87,199.10 302.56,188.50 C302.35,186.78 301.73,184.67 300.84,182.51 C306.45,194.33 307.17,200.89 307.72,235.78 C308.34,275.78 306.83,292.70 301.47,305.40 C301.22,306.01 301.08,306.41 301.14,306.66 ZM 298.44 177.57 C297.40,175.75 296.25,174.07 295.09,172.76 C291.15,168.27 292.53,167.52 301.86,169.10 C304.60,169.57 307.25,170.29 309.83,171.27 C309.01,171.13 308.46,171.27 308.29,171.75 C307.99,172.55 305.76,173.00 302.02,173.00 L 296.20 173.00 ZM 317.36 175.00 C321.37,177.49 325.25,180.71 329.10,184.73 C325.62,181.10 321.22,177.55 317.36,175.00 ZM 291.48 176.03 L 291.41 175.97 C290.36,174.91 287.99,173.79 286.02,173.40 C287.88,173.76 289.88,174.48 290.60,175.08 C290.89,175.32 291.18,175.64 291.48,176.03 ZM 313.85 302.37 C315.44,301.59 317.07,300.65 318.71,299.58 C316.95,300.74 315.19,301.76 313.45,302.62 C310.94,303.86 308.97,304.74 307.13,305.36 C309.13,304.56 311.58,303.47 313.85,302.37 ZM 321.72 171.48 C327.04,174.84 331.86,179.05 336.07,183.98 C331.91,179.15 327.11,174.96 321.72,171.48 Z" fill="rgb(250,204,6)"/>
<path d="M 284.00 383.50 L 284.00 356.00 L 296.00 356.00 L 308.00 356.00 L 308.00 336.00 C308.00,319.12 308.23,316.00 309.46,316.00 C312.29,316.00 322.08,311.81 327.01,308.49 L 332.00 305.14 L 332.00 355.01 C332.00,382.44 332.37,405.11 332.83,405.40 C333.29,405.68 335.96,405.30 338.77,404.56 C353.87,400.58 366.69,389.55 374.38,373.93 C378.77,365.01 383.00,351.47 383.00,346.34 C383.00,345.05 383.45,344.00 384.00,344.00 C384.65,344.00 385.00,355.83 385.00,377.50 L 385.00 411.00 L 334.50 411.00 L 284.00 411.00 L 284.00 383.50 ZM 227.81 278.25 C227.64,259.14 227.64,225.36 227.80,203.20 L 228.11 162.89 L 267.38 163.20 L 306.66 163.50 L 315.08 167.70 C332.79,176.53 345.26,192.05 351.24,212.70 C353.18,219.43 353.49,222.84 353.50,237.50 C353.50,257.11 352.30,263.17 345.66,277.00 C342.31,283.98 339.96,287.12 332.54,294.55 C326.72,300.37 321.33,304.73 317.42,306.77 C306.09,312.67 303.25,313.00 263.85,313.00 L 228.12 313.00 L 227.81 278.25 ZM 276.00 238.00 L 276.00 168.00 L 256.08 168.00 C245.13,168.00 235.45,168.27 234.58,168.61 C233.16,169.15 233.00,176.20 233.00,238.04 L 233.00 306.86 L 235.25 307.29 C236.49,307.53 246.16,307.79 256.75,307.86 L 276.00 308.00 L 276.00 238.00 ZM 313.45 302.62 C322.15,298.32 331.43,289.92 337.31,281.00 C345.80,268.14 349.60,252.08 348.67,233.00 C347.68,212.46 341.90,198.15 329.23,184.86 C320.63,175.84 311.88,170.80 301.86,169.10 C292.53,167.52 291.15,168.27 295.09,172.76 C298.56,176.71 302.00,183.95 302.56,188.50 C303.87,199.10 304.94,235.65 304.44,252.50 C303.56,281.70 300.89,296.03 295.10,302.49 C291.05,307.01 291.26,307.27 298.72,306.85 C304.30,306.53 307.25,305.68 313.45,302.62 ZM 290.50 299.41 C293.05,296.65 295.06,291.27 297.17,281.50 C299.04,272.82 299.02,202.32 297.14,192.13 C295.68,184.22 292.91,177.00 290.60,175.08 C289.82,174.43 287.56,173.64 285.59,173.32 L 282.00 172.74 L 282.00 237.37 L 282.00 302.00 L 285.05 302.00 C287.04,302.00 288.93,301.10 290.50,299.41 Z" fill="rgb(254,253,249)"/>
</g>
</svg>